<svg version="1.2" xmlns="http://www.w3.org/2000/svg" viewBox="0 0 2407 2407" width="2407" height="2407">
	<style>
		.s0 { fill: #c6f000 } 
	</style>
	<g id="Background">
		<g id="Minimalist_geometric_logo_202604032102">
			<path id="Path 1" class="s0" d="m1772 360c-5.78 1.03-14.55 3.3-19.5 5.05-4.95 1.75-13.05 5.21-18 7.7-4.95 2.48-12.6 7.15-17 10.37-4.4 3.22-10.95 8.67-14.56 12.12-3.61 3.44-10.36 10.55-15 15.79-4.64 5.24-11.36 12.89-14.94 17-3.58 4.1-8.03 9.04-9.89 10.97-1.87 1.92-7.72 8.45-13 14.5-5.28 6.05-10.08 11.45-10.67 12-0.59 0.55-4 4.38-7.59 8.5-3.58 4.13-7.69 8.85-9.11 10.5-1.43 1.65-3.64 4.2-4.92 5.67-1.28 1.47-8.4 9.51-15.82 17.87-7.42 8.37-19.75 22.24-27.38 30.83-7.64 8.6-15.51 17.43-17.5 19.63-1.99 2.2-5.15 5.8-7.03 8-1.87 2.2-6.37 7.35-10 11.43-3.62 4.09-14.92 16.72-25.09 28.07-10.17 11.34-21.2 23.73-24.5 27.52-3.3 3.79-10.28 11.64-15.5 17.44-5.22 5.79-11.08 12.29-13 14.43-1.92 2.14-3.95 4.39-4.5 5-0.55 0.61-2.52 2.91-4.39 5.11-1.86 2.2-5.91 6.88-9 10.41-3.08 3.53-12.14 13.69-20.11 22.59-7.97 8.9-17.26 19.29-20.62 23.09-3.37 3.8-8.1 9.15-10.5 11.89-2.41 2.74-8.43 9.49-13.38 15-4.95 5.51-14.4 16.1-20.99 23.52-6.59 7.42-12.44 13.99-12.99 14.59-0.56 0.59-3.94 4.39-7.52 8.43-3.58 4.05-15.28 17.08-26 28.98-10.72 11.89-25.36 28.12-32.52 36.06-7.16 7.94-15.07 16.91-17.56 19.94-2.5 3.03-6.13 7.75-8.06 10.5-1.94 2.75-5.14 8.15-7.12 12-1.97 3.85-4.33 8.8-5.24 11-0.91 2.2-2.27 5.8-3.02 8-0.75 2.2-2.34 8.72-3.54 14.5-1.6 7.77-2.18 14.14-2.21 24.5-0.03 10.37 0.51 16.72 2.07 24.5 1.16 5.78 3.3 13.88 4.77 18 1.47 4.12 4.54 11.33 6.83 16 2.28 4.67 6.69 12.1 9.79 16.5 3.1 4.4 9.57 12.28 14.37 17.5 4.81 5.22 12.4 13.33 16.87 18 4.47 4.67 11 11.65 14.51 15.5 3.51 3.85 10.02 10.83 14.47 15.51 4.45 4.68 11.22 11.88 15.04 16 3.82 4.12 10.34 11.11 14.5 15.53 4.15 4.42 10.47 11.17 14.05 15.01 3.58 3.83 13.32 14.16 21.65 22.96 8.33 8.79 16.32 17.45 17.75 19.24 1.43 1.79 2.6 3.47 2.6 3.75 0 0.28-4.16 4.81-9.25 10.07-5.09 5.27-12.62 13.08-16.75 17.37-4.12 4.28-9.75 10.26-12.5 13.28-2.75 3.03-18.49 20.08-34.98 37.89-16.48 17.81-30.43 32.88-31 33.47-0.56 0.6-5.12 5.55-10.12 11-5.01 5.46-13.04 14.2-17.86 19.42-4.81 5.22-11.46 13.55-14.77 18.5-3.31 4.95-7.59 12.38-9.52 16.5-1.93 4.12-4.53 10.2-5.78 13.5-1.25 3.3-3.03 9.6-3.96 14-0.92 4.4-2.09 12.5-2.58 18-0.56 6.19-0.53 14.01 0.07 20.5 0.53 5.78 2.16 15.22 3.62 21 1.48 5.85 4.95 15.38 7.83 21.5 2.85 6.05 7.7 14.6 10.77 19 3.08 4.4 14.46 17.9 25.28 30 10.83 12.1 22.5 25.15 25.93 29 3.44 3.85 12.73 14.24 20.66 23.1 7.93 8.85 20.71 23.23 28.41 31.93 7.7 8.71 15.84 17.89 18.1 20.4 2.25 2.52 9 9.99 15 16.62 5.99 6.63 13.15 14.73 15.9 18 2.75 3.27 6.84 7.97 9.09 10.45 2.25 2.47 8.72 9.67 14.38 16 5.65 6.33 13.26 14.86 16.9 18.97 3.65 4.1 8.47 9.5 10.71 12 2.25 2.49 5.4 6.04 7 7.88 1.61 1.84 4.27 4.78 5.92 6.52 1.65 1.74 6.15 6.73 10 11.08 3.85 4.35 13.3 14.96 21 23.57 7.7 8.61 17.6 19.89 22 25.07 4.4 5.17 10.7 12.36 14 15.96 3.3 3.6 7.81 8.55 10.03 11 2.22 2.45 6.97 7.82 10.57 11.95 3.59 4.13 8.3 9.49 10.47 11.93 2.16 2.44 6.81 7.62 10.34 11.5 3.52 3.89 9.41 10.67 13.09 15.07 3.68 4.4 9.57 11.18 13.09 15.07 3.53 3.88 7.95 8.83 9.83 11 1.88 2.16 5.93 6.63 9.01 9.93 3.07 3.3 7.83 8.68 10.58 11.95 2.74 3.27 11.07 12.72 18.51 21 7.44 8.28 17.79 19.98 23 26 5.21 6.02 15.16 16.82 22.09 24 7.31 7.56 15.93 15.33 20.5 18.48 4.34 2.98 12.84 7.95 18.89 11.03 6.05 3.09 14.15 6.6 18 7.81 3.85 1.21 12.4 3.12 19 4.24 11.55 1.97 15.12 2.04 96 1.71 81.3-0.32 84.29-0.4 93-2.44 4.95-1.16 12.82-3.44 17.5-5.07 4.68-1.63 12.55-5.12 17.5-7.76 4.95-2.63 12.15-6.99 16-9.68 3.85-2.69 9.68-7.22 12.95-10.08 3.28-2.85 8.52-7.89 11.66-11.19 3.14-3.3 7.57-8.47 9.85-11.5 2.28-3.03 6.59-9.78 9.56-15 2.98-5.22 6.6-12.43 8.06-16 1.46-3.57 3.29-8.75 4.08-11.5 0.78-2.75 1.86-6.57 2.4-8.5 0.53-1.93 1.64-8.68 2.46-15 0.82-6.32 1.48-14.99 1.48-19.25 0-4.26-0.88-12.81-1.96-19-1.08-6.19-3.49-15.97-5.36-21.75-1.87-5.78-5.42-14.55-7.89-19.5-2.46-4.95-5.75-11.03-7.3-13.5-1.56-2.47-5.09-7.42-7.84-11-2.76-3.58-9.77-11.87-15.58-18.43-5.81-6.55-16.87-18.98-24.57-27.61-7.7-8.63-16.7-18.77-20-22.54-3.3-3.77-8.25-9.36-11-12.43-2.75-3.07-7.7-8.68-11-12.47-3.3-3.79-8.25-9.4-11-12.48-2.75-3.08-8.15-9.16-12-13.51-3.85-4.36-11.46-12.9-16.91-18.98-5.45-6.08-11.75-13.14-14-15.69-2.25-2.55-9.72-11.06-16.59-18.91-6.88-7.85-18.8-21.3-26.5-29.89-7.7-8.58-17.15-19.17-21-23.53-3.85-4.35-11.72-13.13-17.5-19.5-5.78-6.37-12.75-14.24-15.5-17.49-2.75-3.25-11.3-12.89-19-21.43-7.7-8.53-20.02-22.29-27.37-30.57-7.35-8.27-15.9-17.91-19-21.42-3.1-3.51-6.08-6.89-6.63-7.5-0.55-0.62-6.66-7.42-13.57-15.12-6.91-7.7-13.88-15.54-15.49-17.43-1.62-1.89-5.15-5.94-7.86-9-2.71-3.06-8.15-9.17-12.1-13.57-3.96-4.4-13.15-14.75-20.43-23-7.28-8.25-16-18.13-19.39-21.95-3.39-3.83-10.66-11.94-16.16-18.04-5.5-6.1-12.55-13.99-15.67-17.55-3.11-3.55-13.46-15.26-23-26-9.53-10.75-20.03-22.64-23.33-26.42-3.3-3.77-11.85-13.45-19-21.51-7.15-8.06-15.25-17.31-18-20.57-2.75-3.25-9.72-11.28-15.5-17.84-5.78-6.56-13.26-15.12-16.64-19.03l-6.14-7.09c4.74-5.42 9.07-10.33 12.7-14.4 3.62-4.08 7.03-7.9 7.59-8.5 0.55-0.61 3.93-4.46 7.5-8.56 3.57-4.11 7.39-8.44 8.49-9.64 1.1-1.2 7.62-8.59 14.5-16.43 6.87-7.84 18.77-21.27 26.43-29.86 7.66-8.59 17.33-19.44 21.49-24.11 4.17-4.67 7.8-8.72 8.08-9 0.27-0.28 2.3-2.54 4.5-5.04 2.2-2.49 6.97-7.89 10.6-12 3.63-4.1 13.27-14.88 21.41-23.96 8.15-9.08 17.39-19.42 20.54-23 3.16-3.58 10.83-12.35 17.05-19.5 6.22-7.15 12.95-14.8 14.95-17 2-2.2 6.07-6.73 9.04-10.06 2.98-3.33 6.73-7.61 8.33-9.5 1.61-1.89 7.01-7.96 12-13.48 5-5.53 11.33-12.68 14.08-15.89 2.75-3.22 5.46-6.35 6.02-6.96 0.57-0.61 8.22-9.21 17-19.11 8.79-9.9 17.24-19.35 18.78-21 1.54-1.65 8.97-9.95 16.5-18.44 7.54-8.49 17.77-19.97 22.75-25.5 4.97-5.53 15.53-17.48 23.47-26.56 7.93-9.08 19.99-22.8 26.79-30.5 6.8-7.7 20.17-22.77 29.71-33.5 9.54-10.73 24.88-28.05 34.09-38.5 9.2-10.45 21.05-23.75 26.31-29.55 5.27-5.8 12.28-13.64 15.58-17.42 3.3-3.78 10.45-11.86 15.89-17.95 5.45-6.1 11.32-12.66 13.06-14.58 1.74-1.92 6.05-6.87 9.59-11 3.53-4.12 8-9.25 9.94-11.39 1.93-2.14 3.97-4.39 4.52-5 0.55-0.61 4.4-4.94 8.55-9.61 4.15-4.67 9.84-11.65 12.64-15.5 2.79-3.85 7.39-11.05 10.2-16 2.82-4.95 6.51-12.83 8.2-17.5 1.69-4.67 3.93-11.87 4.97-16 1.04-4.12 2.44-12.9 3.11-19.5 0.98-9.59 0.97-14.41-0.06-24-0.7-6.6-1.95-14.92-2.78-18.5-0.82-3.58-3.53-12.12-6.01-19-2.48-6.87-5.77-14.75-7.32-17.5-1.54-2.75-3.81-6.8-5.04-9-1.23-2.2-5.47-8.05-9.43-13-3.96-4.95-10.08-11.67-13.61-14.94-3.53-3.26-10.02-8.57-14.42-11.79-4.4-3.23-12.72-8.27-18.5-11.22-5.78-2.94-14.1-6.56-18.5-8.03-4.4-1.48-12.05-3.63-17-4.8-8.74-2.05-11.42-2.12-94-2.36-79.37-0.22-85.7-0.12-95.5 1.64z"/>
			<path id="Path 2" fill-rule="evenodd" class="s0" d="m631.5 358.6l10.5 2.6c5.77 1.43 13.42 3.72 17 5.08 3.58 1.36 10.33 4.4 15 6.77 4.67 2.36 11.88 6.64 16 9.5 4.13 2.86 11.55 9.21 16.5 14.11 4.95 4.9 12.6 13.13 17 18.29 4.4 5.16 12.28 14.17 17.5 20.03 5.22 5.85 12.65 14.21 16.5 18.56 3.85 4.35 10.81 12.2 15.47 17.44 4.65 5.23 8.7 9.75 9 10.02 0.29 0.27 3.68 4.1 7.53 8.5 3.85 4.39 7.82 8.89 8.83 10 1 1.1 5.72 6.45 10.5 11.9 4.77 5.44 14.75 16.7 22.17 25.02 7.42 8.32 16.67 18.71 20.54 23.1 3.88 4.39 10.6 12.03 14.94 16.98 4.34 4.95 11.52 13.03 15.96 17.95 4.43 4.92 10.31 11.47 13.06 14.57 2.75 3.1 7.7 8.74 11 12.54 3.3 3.8 10.68 12.09 16.39 18.43 5.72 6.33 12.04 13.31 14.06 15.51 2.01 2.2 7 7.83 11.1 12.5 4.09 4.67 8.57 9.8 9.95 11.4 1.37 1.59 4.35 4.97 6.6 7.5 2.26 2.53 13.24 14.72 24.41 27.1 11.16 12.37 23.1 25.65 26.52 29.5 3.42 3.85 12.2 13.75 19.51 22 7.3 8.25 13.55 15.22 13.88 15.5 0.33 0.28 5.55 6.12 11.6 13 6.05 6.87 13.69 15.62 16.99 19.44 3.29 3.82 10.94 12.39 16.99 19.05 6.05 6.66 13.03 14.38 15.5 17.15 2.47 2.76 7.65 8.56 11.5 12.88 3.85 4.32 9.25 10.38 12 13.46 2.75 3.08 7.43 8.28 10.39 11.56 2.97 3.28 7.77 9.56 10.67 13.96 2.9 4.4 7.28 12.28 9.74 17.5 2.46 5.22 5.19 11.97 6.08 15 0.89 3.03 2.3 9.33 3.13 14 0.88 4.95 1.51 14.56 1.52 23 0.01 7.97-0.45 17.2-1.02 20.5-0.58 3.3-1.54 8.03-2.16 10.5-0.61 2.47-1.9 6.97-2.88 10-0.97 3.03-3.54 9.33-5.71 14-2.18 4.67-6.55 12.33-9.73 17-3.18 4.67-7.61 10.53-9.84 13-2.23 2.47-10.38 11.24-18.12 19.49-7.74 8.24-16.57 17.69-19.62 21-3.05 3.3-12.49 13.43-20.98 22.51-8.5 9.08-15.9 17-16.46 17.61-0.55 0.6-6.22 6.68-12.59 13.5-6.37 6.81-15.14 16.22-19.5 20.9-4.35 4.68-11.81 12.56-16.55 17.5-4.75 4.94-9.82 10.45-13.87 15.49l3.42 4.25c1.88 2.34 4.46 5.18 5.75 6.33 1.28 1.14 8.18 8.33 15.33 15.98 7.15 7.65 14.32 15.26 15.94 16.92 1.62 1.66 8.55 9.1 15.4 16.52 6.85 7.42 15.67 16.87 19.6 21 3.92 4.12 12.52 13.33 19.1 20.46 6.58 7.13 13.54 14.56 15.46 16.5 1.93 1.95 8.4 8.94 14.39 15.54 5.98 6.6 12.09 13.35 13.58 15 1.48 1.65 5.1 6.37 8.04 10.5 2.94 4.12 7.7 12.45 10.57 18.5 2.88 6.05 6.19 14.15 7.36 18 1.18 3.85 2.8 11.05 3.6 16 0.8 4.95 1.45 14.74 1.46 21.75 0 7.01-0.49 16.01-1.09 20-0.6 3.99-1.99 10.62-3.08 14.75-1.1 4.12-4.12 12-6.72 17.5-2.59 5.5-6.68 12.92-9.07 16.5-2.39 3.58-6.41 8.97-8.92 12-2.52 3.03-6.66 7.75-9.2 10.5-2.55 2.75-9.98 11.08-16.51 18.5-6.53 7.42-13.75 15.53-16.04 18-2.29 2.47-5.81 6.53-7.83 9-2.01 2.47-4.42 5.18-5.35 6.02-0.93 0.84-4.83 5.11-8.68 9.5-3.84 4.39-11.45 12.93-16.92 18.98-5.46 6.05-11.76 13.04-14.01 15.54-2.24 2.5-5.37 6.1-6.94 8-1.58 1.9-5.63 6.58-9 10.4-3.38 3.81-10.64 11.92-16.14 18.01-5.5 6.09-12.7 14.19-16 17.98-3.3 3.8-12.25 13.92-19.9 22.49-7.64 8.57-15.54 17.38-17.55 19.58-2.01 2.2-7 7.82-11.08 12.5-4.09 4.68-7.89 9-8.45 9.61-0.56 0.6-3.72 4.19-7.02 7.96-3.3 3.77-10.72 12.05-16.5 18.41-5.78 6.36-13.65 15.15-17.5 19.53-3.85 4.38-7.45 8.47-8 9.09-0.55 0.62-2.32 2.65-3.93 4.51-1.61 1.86-5.89 6.76-9.5 10.89-3.61 4.12-6.79 7.72-7.07 8-0.28 0.28-2.08 2.33-4 4.57-1.92 2.24-6.2 7.16-9.5 10.94-3.3 3.78-10.5 11.86-16 17.95-5.5 6.09-12.7 14.18-16 17.97-3.3 3.8-12.25 13.92-19.9 22.49-7.64 8.57-15.52 17.38-17.5 19.58-1.98 2.2-7.43 8.28-12.1 13.5-4.68 5.22-8.75 9.72-9.05 10-0.3 0.28-3.47 3.87-7.06 8-3.58 4.12-8.32 9.53-10.54 12-2.22 2.47-8.49 9.48-13.94 15.57-5.45 6.08-12.6 14.18-15.89 18-3.28 3.81-11.18 12.11-17.53 18.43-6.36 6.32-14.7 13.57-18.53 16.11-3.83 2.53-10.56 6.53-14.96 8.88-4.4 2.34-11.6 5.52-16 7.06-4.4 1.53-13.17 3.84-19.5 5.12-11.49 2.33-11.54 2.33-94 2.33-75.95 0-83.33-0.15-93-1.86-5.77-1.02-14.33-3.1-19-4.62-4.67-1.53-12.77-4.91-18-7.51-5.23-2.61-12.65-6.8-16.5-9.31-3.85-2.52-10.38-7.38-14.5-10.8-4.13-3.43-9.35-8.18-11.6-10.56-2.26-2.39-6.56-7.49-9.57-11.34-3.01-3.85-8.1-11.72-11.32-17.5-3.22-5.78-7.61-15.45-9.75-21.5-2.15-6.05-4.65-14.38-5.56-18.5-1.22-5.53-1.66-12.62-1.68-27-0.01-12.78 0.45-21.74 1.35-26 0.76-3.57 3.16-11.9 5.34-18.5 2.18-6.6 6.45-16.5 9.5-22 3.04-5.5 7.55-12.7 10.02-16 2.48-3.3 6.58-8.43 9.13-11.4 2.55-2.97 5.09-5.91 5.64-6.53 0.55-0.61 4.37-4.93 8.49-9.59 4.11-4.67 7.71-8.7 8-8.98 0.28-0.28 2.28-2.53 4.44-5 2.16-2.47 7.4-8.32 11.64-13 4.23-4.68 8.98-10.07 10.54-12 1.55-1.93 6.5-7.55 10.99-12.5 4.49-4.95 10.8-12.2 14.03-16.11 3.23-3.92 9.65-11.34 14.27-16.5 4.63-5.17 10.03-11.19 12.01-13.39 1.97-2.2 6.74-7.6 10.59-12 3.85-4.4 11.05-12.52 16-18.04 4.95-5.52 11.48-12.91 14.5-16.42 3.02-3.5 11.37-12.94 18.55-20.96 7.17-8.02 16.16-18.18 19.97-22.58 3.8-4.4 7.38-8.5 7.95-9.11 0.57-0.61 3.95-4.42 7.53-8.47 3.58-4.04 11.64-13 17.91-19.89 6.28-6.89 13.66-15.23 16.4-18.53 2.74-3.3 8.4-9.82 12.58-14.48 4.19-4.67 9.88-10.97 12.65-14 2.77-3.04 8.39-9.35 12.49-14.02 4.1-4.67 9.77-10.97 12.6-14 2.82-3.03 8.88-9.78 13.46-15 4.57-5.22 9.73-11.08 11.47-13 1.73-1.92 9.85-10.95 18.04-20.05 8.2-9.11 17.82-19.85 21.4-23.89 3.58-4.03 6.95-7.83 7.51-8.44 0.55-0.62 4.82-5.42 9.5-10.67 4.67-5.26 11.64-13.11 15.49-17.45 3.85-4.34 11.28-12.68 16.5-18.54 5.22-5.85 13.55-15.29 18.5-20.96 4.95-5.68 10.74-12.39 12.86-14.91 2.12-2.52 7.56-8.64 12.09-13.59 4.53-4.95 9.77-10.8 11.64-13 1.88-2.2 3.92-4.45 4.55-5 0.63-0.55 4.6-5.05 8.84-10 4.23-4.95 10.24-11.92 13.36-15.48 3.11-3.56 9.72-10.99 14.67-16.5 4.96-5.51 12.23-13.85 16.16-18.52 3.92-4.67 13.66-15.47 21.64-24 8.45-9.03 14.22-15.99 13.84-16.67-0.36-0.64-6.95-8.09-14.65-16.55-7.7-8.45-16.98-18.73-20.63-22.83-3.65-4.1-8.83-9.96-11.5-13.03-2.68-3.07-7.34-8.44-10.37-11.93-3.03-3.49-16.08-18.1-29-32.46-12.92-14.36-29.8-33.3-37.5-42.07-7.7-8.78-16.25-18.45-19-21.49-2.75-3.04-7.47-8.38-10.5-11.88-3.03-3.49-5.96-6.85-6.52-7.47-0.56-0.61-10.18-11.47-21.37-24.12-11.19-12.65-23.11-26.14-26.48-29.97-3.37-3.84-8.38-9.49-11.13-12.58-2.75-3.08-7.47-8.48-10.5-12.01-3.03-3.53-7.53-8.67-10-11.43-2.47-2.75-4.72-5.23-5-5.51-0.28-0.28-4.1-4.55-8.5-9.5-4.39-4.95-8.23-9.22-8.52-9.5-0.28-0.28-4.07-4.55-8.41-9.5-4.34-4.95-10.63-12.13-13.98-15.95-3.35-3.83-10.59-11.96-16.09-18.08-5.5-6.12-12.48-13.99-15.5-17.5-3.02-3.5-13.15-14.96-22.5-25.45-9.35-10.49-19.48-21.95-22.5-25.47-3.02-3.52-12.25-13.89-20.5-23.06-8.25-9.17-17.48-19.54-20.5-23.05-3.02-3.51-11.35-12.92-18.49-20.91-7.15-7.99-13.83-15.43-14.85-16.53-1.02-1.1-7.77-8.71-15.01-16.91-7.23-8.2-19.45-21.96-27.15-30.57-7.7-8.61-17.15-19.21-21-23.55-3.85-4.34-10.82-12.19-15.5-17.43-4.67-5.25-9.9-11.12-11.61-13.04-1.72-1.92-6.15-6.88-9.84-11-3.7-4.13-9.54-11.1-12.98-15.5-3.44-4.4-9.01-12.95-12.39-19-3.37-6.05-7.9-16.17-10.06-22.5-2.17-6.33-4.53-14.2-5.26-17.5-0.84-3.83-1.32-13.22-1.34-26-0.01-13.26 0.44-22.19 1.36-26.5 0.76-3.58 3.29-12.35 5.62-19.5 2.33-7.15 5.48-15.48 7-18.5 1.52-3.02 5.73-10 9.36-15.5 4.16-6.3 10.5-13.9 17.12-20.52 6.62-6.63 14.22-12.98 20.52-17.14 5.5-3.64 13.38-8.31 17.5-10.37 4.13-2.06 11.33-5.08 16-6.69 4.67-1.62 12.77-3.79 18-4.83 5.23-1.03 10.85-2.06 12.5-2.28 1.65-0.23 41.02-0.34 172-0.07zm-171.5 71.92c-4.83 0.89-10.88 3.06-17 6.1-5.87 2.92-11.54 6.67-14.85 9.8-2.94 2.8-7.42 8-9.95 11.58-2.52 3.58-5.84 9.2-7.36 12.5-1.53 3.3-3.56 8.92-4.52 12.5-1.13 4.18-1.74 10.06-1.73 16.5 0.02 6.47 0.64 12.12 1.76 16 0.96 3.3 2.7 8.47 3.88 11.5 1.17 3.02 4.23 8.65 6.8 12.5 2.56 3.85 5.32 7.67 6.12 8.5 0.8 0.83 4.8 5.33 8.88 10 4.09 4.67 9.06 10.3 11.06 12.5 2 2.2 7.63 8.51 12.52 14.03 4.89 5.52 11.37 12.9 14.39 16.41 3.02 3.51 7.34 8.44 9.59 10.97 2.25 2.52 8.95 9.99 14.88 16.59 5.92 6.6 12.21 13.58 13.96 15.5 1.76 1.92 6.29 7.1 10.08 11.5 3.79 4.4 7.15 8.22 7.46 8.5 0.31 0.28 3.25 3.65 6.54 7.5 3.3 3.85 6.22 7.22 6.51 7.5 0.28 0.28 3.43 3.87 7 7.98 3.56 4.11 12.56 14.26 19.98 22.54 7.42 8.29 16.42 18.38 20 22.44 3.58 4.05 8.52 9.68 11 12.51 2.48 2.82 7.42 8.46 11 12.53 3.58 4.07 10.77 12.17 16 18 5.23 5.84 12.2 13.71 15.5 17.49 3.3 3.78 8.42 9.61 11.38 12.94 2.97 3.34 7.24 8.12 9.5 10.64 2.27 2.51 6.82 7.66 10.12 11.44 3.3 3.78 9.6 10.95 13.99 15.93 4.4 4.98 8.25 9.28 8.57 9.56 0.31 0.28 4.35 4.78 8.98 10 4.62 5.22 8.66 9.72 8.98 10 0.32 0.28 3.68 4.1 7.47 8.5 3.79 4.4 8.32 9.58 10.07 11.5 1.75 1.92 9.88 10.97 18.06 20.1 8.19 9.14 22.15 24.89 31.04 35 8.89 10.12 16.99 19.3 18 20.4 1.01 1.1 4.54 5.15 7.84 9 3.29 3.85 10.04 11.52 15 17.05 4.95 5.53 11.92 13.37 15.5 17.43 3.58 4.06 8.13 9.21 10.12 11.45 2 2.24 7.39 8.35 12 13.57 4.6 5.22 8.6 9.72 8.87 10 0.28 0.28 3.88 4.33 8.01 9 4.12 4.67 7.75 8.72 8.06 9 0.31 0.28 3.69 4.13 7.5 8.56 3.82 4.43 10.73 12.31 15.36 17.5 4.64 5.19 11.22 12.59 14.63 16.44 3.41 3.85 10.37 11.72 15.47 17.5 5.09 5.78 11.87 13.42 15.05 17 3.18 3.58 6.6 7.54 7.61 8.82l1.82 2.32c23.25-25.18 32.19-35 34.87-38.07 2.68-3.06 7.61-8.49 10.95-12.07 3.35-3.58 9.49-10.1 13.63-14.51 4.15-4.4 10.7-11.41 14.55-15.56 3.85-4.15 12.84-13.82 19.98-21.49 7.13-7.67 17.28-18.44 22.55-23.94 5.27-5.5 11.8-12.49 14.52-15.53 2.72-3.05 6.92-9.35 9.34-14 2.41-4.66 4.99-11.39 5.73-14.97 0.74-3.58 1.35-9.31 1.36-12.75 0.01-3.44-0.47-8.61-1.07-11.5-0.6-2.89-2.68-8.4-4.63-12.25-1.94-3.85-4.99-8.8-6.78-11-1.78-2.2-7.88-9.17-13.54-15.5-5.66-6.33-14.61-16.22-19.88-22-5.28-5.78-11.4-12.54-13.59-15.04-2.19-2.5-6.46-7.42-9.49-10.94-3.03-3.52-14.28-16.12-25-27.98-10.72-11.87-23.06-25.62-27.42-30.56-4.36-4.94-10.66-12.09-14-15.88-3.34-3.8-12.18-13.7-19.65-22-7.46-8.31-14.88-16.63-16.5-18.5-1.61-1.87-3.65-4.12-4.52-5-0.88-0.88-4.68-5.2-8.45-9.6-3.78-4.4-7.11-8.22-7.41-8.5-0.3-0.28-4.62-5-9.6-10.5-4.98-5.5-14.65-16.32-21.5-24.04-6.85-7.72-15.15-17.14-18.45-20.93-3.3-3.79-10.5-11.89-16-18-5.5-6.11-12.47-13.96-15.5-17.45-3.03-3.48-5.95-6.85-6.5-7.47-0.55-0.63-2.99-3.39-5.41-6.13-2.43-2.74-6.48-7.24-9-10-2.53-2.76-6.84-7.49-9.59-10.51-2.75-3.02-8.2-9.09-12.11-13.48-3.92-4.4-11.52-12.94-16.91-18.99-5.38-6.05-12.75-14.33-16.38-18.41-3.63-4.07-10.67-11.95-15.65-17.5-4.98-5.55-14.38-16.17-20.89-23.59-6.51-7.42-14.59-16.64-17.95-20.47-3.36-3.83-14.93-16.66-25.72-28.5-10.78-11.84-20.68-22.48-22-23.64-1.31-1.17-5.54-3.93-9.39-6.16-3.85-2.22-9.92-5.09-13.5-6.38l-6.5-2.35c-142.35-0.32-159.49-0.08-165.5 1.02zm494 830.63c-2.47 2.91-7.42 8.48-11 12.38-3.58 3.9-7.82 8.64-9.43 10.53-1.61 1.89-6.34 7.3-10.5 12.02-4.16 4.72-10.49 11.89-14.07 15.95-3.58 4.05-7.85 8.79-9.5 10.53-1.65 1.73-5.92 6.48-9.48 10.54-3.57 4.07-6.72 7.62-7 7.9-0.29 0.28-2.77 2.98-5.52 6-2.75 3.03-8.15 9.08-12 13.44-3.85 4.36-11.05 12.49-16 18.05-4.95 5.57-11.92 13.45-15.5 17.51-3.58 4.07-11.18 12.59-16.89 18.95-5.72 6.35-11.82 13.13-13.56 15.05-1.74 1.92-6.45 7.33-10.46 12-4.02 4.67-8.94 10.3-10.95 12.5-2 2.2-7.24 8.05-11.64 12.99-4.4 4.95-9.88 11.02-12.17 13.5-2.29 2.48-5.44 6.1-7 8.04-1.56 1.94-3.73 4.46-4.83 5.59-1.1 1.13-4.7 5.16-8 8.95-3.3 3.8-8.25 9.4-11 12.45-2.75 3.05-7.7 8.66-11 12.45-3.3 3.8-8.21 9.41-10.92 12.47-2.71 3.06-8.15 9.16-12.09 13.56-3.95 4.4-9.39 10.5-12.08 13.56-2.7 3.06-7.61 8.67-10.91 12.46-3.3 3.79-12.08 13.67-19.52 21.94-7.44 8.27-19.56 22.01-26.95 30.54-7.39 8.53-13.7 15.72-14.03 16-0.32 0.28-3.46 3.87-6.98 8-3.52 4.12-7.82 9.07-9.56 11-1.73 1.93-5.58 6.23-8.56 9.56-2.97 3.33-6.54 7.38-7.94 9-1.39 1.62-5.88 6.76-9.97 11.44-4.09 4.68-9.47 10.73-11.96 13.46-2.49 2.73-6.79 7.46-9.56 10.5-2.76 3.05-8.61 9.59-13 14.54-4.38 4.95-9.8 11.03-12.05 13.5-2.25 2.47-6.75 7.44-10.01 11.04-3.25 3.6-8.16 9.2-10.91 12.46-2.75 3.26-11.75 13.41-20 22.56-8.25 9.16-18.83 21.09-23.5 26.52-4.67 5.44-12.77 14.62-18 20.42-5.23 5.79-11.3 12.69-13.5 15.33-2.2 2.64-6.15 8.26-8.79 12.49-2.63 4.22-5.99 11.5-7.47 16.18-2.33 7.39-2.69 10.2-2.7 21.5-0.01 10.92 0.36 14.12 2.29 20 1.27 3.85 3.7 9.47 5.39 12.5 1.7 3.03 4.74 7.75 6.76 10.5 2.02 2.75 6.12 7.13 9.1 9.74 2.98 2.6 8.79 6.56 12.92 8.79 4.12 2.22 10.65 5.04 14.5 6.26 6.98 2.2 7.24 2.21 86.5 2.21h79.5c11.62-3.65 17.7-6.08 21-7.74 3.3-1.66 7.8-4.29 10-5.83 2.2-1.54 5.58-4.31 7.5-6.15 1.92-1.85 6.42-6.69 10-10.77 3.58-4.08 8.92-10.14 11.88-13.47 2.95-3.32 7.04-7.84 9.07-10.04 2.04-2.2 8.14-9.18 13.57-15.5 5.42-6.32 15.08-17.35 21.48-24.5 6.39-7.15 12.94-14.53 14.56-16.41 1.62-1.88 4.79-5.48 7.05-8 2.26-2.52 8.11-9.12 13-14.67 4.89-5.54 10.21-11.61 11.82-13.5 1.61-1.88 8.13-9.27 14.5-16.41 6.36-7.15 13.15-14.75 15.07-16.89 1.92-2.14 3.95-4.4 4.5-5.01 0.55-0.61 5.28-5.85 10.5-11.65 5.23-5.79 11.97-13.4 15-16.91 3.03-3.5 10.22-11.61 16-18.02 5.78-6.41 11.87-13.21 13.54-15.09 1.67-1.89 6.38-7.26 10.47-11.94 4.08-4.68 7.66-8.72 7.96-9 0.29-0.28 4.36-4.77 9.03-10 4.67-5.22 9.9-11.07 11.62-13 1.71-1.92 12.29-13.65 23.5-26.05 11.21-12.4 22.85-25.39 25.88-28.87 3.03-3.48 5.95-6.84 6.5-7.46 0.55-0.63 4.83-5.41 9.5-10.63 4.67-5.21 10.34-11.51 12.58-13.99 2.25-2.47 8.33-9.22 13.53-15 5.2-5.78 15.52-17.25 22.94-25.5 7.42-8.25 15.73-17.68 18.47-20.95 2.74-3.27 7.68-8.91 10.98-12.54 3.3-3.62 8.92-9.92 12.5-14 3.58-4.07 10.78-12.16 16-17.99 5.22-5.82 12.2-13.65 15.5-17.39 3.3-3.75 7.59-9.81 9.54-13.47 1.95-3.66 4.2-8.91 5-11.66 0.89-3.04 1.42-8.91 1.36-15-0.05-5.72-0.74-12.14-1.59-15-0.83-2.75-3.38-8.6-5.67-13-2.94-5.65-7.13-11.22-14.31-19-5.58-6.05-15.14-16.38-21.24-22.97-6.1-6.58-12.22-13.17-13.59-14.64-1.38-1.48-4.54-4.87-7.03-7.54-2.49-2.67-7.63-8.23-11.42-12.35-3.78-4.13-10.3-11.1-14.47-15.51-4.17-4.41-10.5-11.16-14.08-15.01-3.58-3.85-10.76-11.72-15.97-17.49-5.2-5.77-13.53-14.68-18.5-19.81l-9.03-9.32z"/>
		</g>
	</g>
</svg>